<mxfile host="app.diagrams.net" modified="2023-10-20T07:48:00.849Z" agent="Mozilla/5.0 (Macintosh; Intel Mac OS X 10_15_7) AppleWebKit/537.36 (KHTML, like Gecko) Chrome/102.0.5005.61 Safari/537.36" etag="GnlIsRzWhtoSV-0tPPcz" version="21.6.5" type="device">
  <diagram id="C5RBs43oDa-KdzZeNtuy" name="Page-1">
    <mxGraphModel dx="948" dy="546" grid="1" gridSize="10" guides="1" tooltips="1" connect="1" arrows="1" fold="1" page="1" pageScale="1" pageWidth="827" pageHeight="1169" math="0" shadow="0">
      <root>
        <mxCell id="WIyWlLk6GJQsqaUBKTNV-0" />
        <mxCell id="WIyWlLk6GJQsqaUBKTNV-1" parent="WIyWlLk6GJQsqaUBKTNV-0" />
        <mxCell id="CbuRB8H8sCCOuhlkq7PC-52" value="Start/End of the Sequence" style="rounded=1;whiteSpace=wrap;html=1;fontSize=12;glass=0;strokeWidth=1;shadow=0;strokeColor=#FF0000;" parent="WIyWlLk6GJQsqaUBKTNV-1" vertex="1">
          <mxGeometry x="90" y="250" width="120" height="40" as="geometry" />
        </mxCell>
        <mxCell id="CbuRB8H8sCCOuhlkq7PC-53" value="Processes/Actions" style="rounded=0;whiteSpace=wrap;html=1;fontSize=12;glass=0;strokeWidth=1;shadow=0;" parent="WIyWlLk6GJQsqaUBKTNV-1" vertex="1">
          <mxGeometry x="90" y="250" width="120" height="40" as="geometry" />
        </mxCell>
        <mxCell id="CbuRB8H8sCCOuhlkq7PC-54" value="Decisions" style="rhombus;whiteSpace=wrap;html=1;" parent="WIyWlLk6GJQsqaUBKTNV-1" vertex="1">
          <mxGeometry x="110" y="360" width="80" height="70" as="geometry" />
        </mxCell>
        <mxCell id="CbuRB8H8sCCOuhlkq7PC-56" value="" style="shape=partialRectangle;whiteSpace=wrap;html=1;bottom=1;right=1;left=1;top=0;fillColor=none;routingCenterX=-0.5;rotation=90;" parent="WIyWlLk6GJQsqaUBKTNV-1" vertex="1">
          <mxGeometry x="115" y="500" width="70" height="40" as="geometry" />
        </mxCell>
        <mxCell id="CbuRB8H8sCCOuhlkq7PC-57" value="Additional Information" style="text;html=1;strokeColor=none;fillColor=none;align=center;verticalAlign=middle;whiteSpace=wrap;rounded=0;" parent="WIyWlLk6GJQsqaUBKTNV-1" vertex="1">
          <mxGeometry x="120" y="450" width="60" height="30" as="geometry" />
        </mxCell>
        <mxCell id="CbuRB8H8sCCOuhlkq7PC-66" value="" style="verticalLabelPosition=bottom;verticalAlign=top;html=1;shape=card;whiteSpace=wrap;size=20;arcSize=12;align=center;" parent="WIyWlLk6GJQsqaUBKTNV-1" vertex="1">
          <mxGeometry x="70" y="40" width="160" height="90" as="geometry" />
        </mxCell>
        <mxCell id="CbuRB8H8sCCOuhlkq7PC-67" value="Open CV Analyzation" style="text;html=1;strokeColor=none;fillColor=none;align=center;verticalAlign=middle;whiteSpace=wrap;rounded=0;" parent="WIyWlLk6GJQsqaUBKTNV-1" vertex="1">
          <mxGeometry x="120" y="70" width="60" height="30" as="geometry" />
        </mxCell>
        <mxCell id="CbuRB8H8sCCOuhlkq7PC-68" value="&lt;b&gt;Legend:&lt;/b&gt;" style="text;html=1;strokeColor=none;fillColor=none;align=center;verticalAlign=middle;whiteSpace=wrap;rounded=0;" parent="WIyWlLk6GJQsqaUBKTNV-1" vertex="1">
          <mxGeometry x="120" y="160" width="60" height="30" as="geometry" />
        </mxCell>
        <mxCell id="CbuRB8H8sCCOuhlkq7PC-69" value="Start" style="rounded=1;whiteSpace=wrap;html=1;fontSize=12;glass=0;strokeWidth=1;shadow=0;strokeColor=#FF0000;" parent="WIyWlLk6GJQsqaUBKTNV-1" vertex="1">
          <mxGeometry x="90" y="200" width="120" height="40" as="geometry" />
        </mxCell>
        <mxCell id="aovXvjX4OymMQ-b7WY1g-1" value="Opening the attachement image" style="rounded=1;whiteSpace=wrap;html=1;fontSize=12;glass=0;strokeWidth=1;shadow=0;strokeColor=#FF0000;" vertex="1" parent="WIyWlLk6GJQsqaUBKTNV-1">
          <mxGeometry x="500" y="40" width="120" height="40" as="geometry" />
        </mxCell>
        <mxCell id="aovXvjX4OymMQ-b7WY1g-2" value="Project image to equal plane across all images" style="rounded=0;whiteSpace=wrap;html=1;fontSize=12;glass=0;strokeWidth=1;shadow=0;" vertex="1" parent="WIyWlLk6GJQsqaUBKTNV-1">
          <mxGeometry x="500" y="150" width="120" height="50" as="geometry" />
        </mxCell>
        <mxCell id="aovXvjX4OymMQ-b7WY1g-3" value="" style="shape=flexArrow;endArrow=classic;html=1;rounded=0;" edge="1" parent="WIyWlLk6GJQsqaUBKTNV-1">
          <mxGeometry width="50" height="50" relative="1" as="geometry">
            <mxPoint x="559.5" y="90" as="sourcePoint" />
            <mxPoint x="559.5" y="140" as="targetPoint" />
          </mxGeometry>
        </mxCell>
        <mxCell id="aovXvjX4OymMQ-b7WY1g-4" value="Convert image to compatibel datatype&amp;nbsp;" style="rounded=0;whiteSpace=wrap;html=1;fontSize=12;glass=0;strokeWidth=1;shadow=0;" vertex="1" parent="WIyWlLk6GJQsqaUBKTNV-1">
          <mxGeometry x="500" y="270" width="120" height="50" as="geometry" />
        </mxCell>
        <mxCell id="aovXvjX4OymMQ-b7WY1g-5" value="" style="shape=flexArrow;endArrow=classic;html=1;rounded=0;" edge="1" parent="WIyWlLk6GJQsqaUBKTNV-1">
          <mxGeometry width="50" height="50" relative="1" as="geometry">
            <mxPoint x="559.5" y="210" as="sourcePoint" />
            <mxPoint x="559.5" y="260" as="targetPoint" />
          </mxGeometry>
        </mxCell>
        <mxCell id="aovXvjX4OymMQ-b7WY1g-7" value="Seperate data into rows, columns" style="rounded=0;whiteSpace=wrap;html=1;fontSize=12;glass=0;strokeWidth=1;shadow=0;" vertex="1" parent="WIyWlLk6GJQsqaUBKTNV-1">
          <mxGeometry x="500" y="390" width="120" height="50" as="geometry" />
        </mxCell>
        <mxCell id="aovXvjX4OymMQ-b7WY1g-9" value="" style="shape=flexArrow;endArrow=classic;html=1;rounded=0;" edge="1" parent="WIyWlLk6GJQsqaUBKTNV-1">
          <mxGeometry width="50" height="50" relative="1" as="geometry">
            <mxPoint x="559.5" y="330" as="sourcePoint" />
            <mxPoint x="559.5" y="380" as="targetPoint" />
          </mxGeometry>
        </mxCell>
        <mxCell id="aovXvjX4OymMQ-b7WY1g-10" value="Recognize &quot;Name(Druckschrift)&quot; Columns" style="rounded=0;whiteSpace=wrap;html=1;fontSize=12;glass=0;strokeWidth=1;shadow=0;" vertex="1" parent="WIyWlLk6GJQsqaUBKTNV-1">
          <mxGeometry x="500" y="510" width="120" height="50" as="geometry" />
        </mxCell>
        <mxCell id="aovXvjX4OymMQ-b7WY1g-11" value="" style="shape=flexArrow;endArrow=classic;html=1;rounded=0;" edge="1" parent="WIyWlLk6GJQsqaUBKTNV-1">
          <mxGeometry width="50" height="50" relative="1" as="geometry">
            <mxPoint x="559.5" y="450" as="sourcePoint" />
            <mxPoint x="559.5" y="500" as="targetPoint" />
          </mxGeometry>
        </mxCell>
        <mxCell id="aovXvjX4OymMQ-b7WY1g-14" value="" style="shape=flexArrow;endArrow=classic;html=1;rounded=0;" edge="1" parent="WIyWlLk6GJQsqaUBKTNV-1">
          <mxGeometry width="50" height="50" relative="1" as="geometry">
            <mxPoint x="559.5" y="570" as="sourcePoint" />
            <mxPoint x="559.5" y="620" as="targetPoint" />
          </mxGeometry>
        </mxCell>
        <mxCell id="aovXvjX4OymMQ-b7WY1g-15" value="Evaluate Signature Column" style="rhombus;whiteSpace=wrap;html=1;" vertex="1" parent="WIyWlLk6GJQsqaUBKTNV-1">
          <mxGeometry x="520" y="630" width="80" height="80" as="geometry" />
        </mxCell>
        <mxCell id="aovXvjX4OymMQ-b7WY1g-16" value="Signature isn&#39;t unambigous(eindeutig)" style="rounded=1;whiteSpace=wrap;html=1;fontSize=12;glass=0;strokeWidth=1;shadow=0;" vertex="1" parent="WIyWlLk6GJQsqaUBKTNV-1">
          <mxGeometry x="330" y="760" width="120" height="50" as="geometry" />
        </mxCell>
        <mxCell id="aovXvjX4OymMQ-b7WY1g-17" value="Signature Detected&amp;nbsp;" style="rounded=1;whiteSpace=wrap;html=1;fontSize=12;glass=0;strokeWidth=1;shadow=0;" vertex="1" parent="WIyWlLk6GJQsqaUBKTNV-1">
          <mxGeometry x="500" y="760" width="120" height="50" as="geometry" />
        </mxCell>
        <mxCell id="aovXvjX4OymMQ-b7WY1g-18" value="No Signature Detected&amp;nbsp;" style="rounded=1;whiteSpace=wrap;html=1;fontSize=12;glass=0;strokeWidth=1;shadow=0;" vertex="1" parent="WIyWlLk6GJQsqaUBKTNV-1">
          <mxGeometry x="670" y="760" width="120" height="50" as="geometry" />
        </mxCell>
        <mxCell id="aovXvjX4OymMQ-b7WY1g-19" value="" style="shape=flexArrow;endArrow=classic;html=1;rounded=0;entryX=0.5;entryY=0;entryDx=0;entryDy=0;exitX=0;exitY=0.5;exitDx=0;exitDy=0;" edge="1" parent="WIyWlLk6GJQsqaUBKTNV-1" source="aovXvjX4OymMQ-b7WY1g-15" target="aovXvjX4OymMQ-b7WY1g-16">
          <mxGeometry width="50" height="50" relative="1" as="geometry">
            <mxPoint x="450" y="720" as="sourcePoint" />
            <mxPoint x="500" y="670" as="targetPoint" />
            <Array as="points">
              <mxPoint x="390" y="670" />
            </Array>
          </mxGeometry>
        </mxCell>
        <mxCell id="aovXvjX4OymMQ-b7WY1g-20" value="" style="shape=flexArrow;endArrow=classic;html=1;rounded=0;entryX=0.5;entryY=0;entryDx=0;entryDy=0;exitX=0.5;exitY=1;exitDx=0;exitDy=0;" edge="1" parent="WIyWlLk6GJQsqaUBKTNV-1" source="aovXvjX4OymMQ-b7WY1g-15" target="aovXvjX4OymMQ-b7WY1g-17">
          <mxGeometry width="50" height="50" relative="1" as="geometry">
            <mxPoint x="530" y="680" as="sourcePoint" />
            <mxPoint x="400" y="770" as="targetPoint" />
            <Array as="points" />
          </mxGeometry>
        </mxCell>
        <mxCell id="aovXvjX4OymMQ-b7WY1g-21" value="" style="shape=flexArrow;endArrow=classic;html=1;rounded=0;entryX=0.5;entryY=0;entryDx=0;entryDy=0;" edge="1" parent="WIyWlLk6GJQsqaUBKTNV-1" source="aovXvjX4OymMQ-b7WY1g-15">
          <mxGeometry width="50" height="50" relative="1" as="geometry">
            <mxPoint x="860" y="670" as="sourcePoint" />
            <mxPoint x="730" y="760" as="targetPoint" />
            <Array as="points">
              <mxPoint x="730" y="670" />
            </Array>
          </mxGeometry>
        </mxCell>
        <mxCell id="aovXvjX4OymMQ-b7WY1g-22" value="User Intervention" style="rounded=0;whiteSpace=wrap;html=1;fontSize=12;glass=0;strokeWidth=1;shadow=0;" vertex="1" parent="WIyWlLk6GJQsqaUBKTNV-1">
          <mxGeometry x="330" y="880" width="120" height="50" as="geometry" />
        </mxCell>
        <mxCell id="aovXvjX4OymMQ-b7WY1g-23" value="State" style="rounded=1;whiteSpace=wrap;html=1;fontSize=12;glass=0;strokeWidth=1;shadow=0;" vertex="1" parent="WIyWlLk6GJQsqaUBKTNV-1">
          <mxGeometry x="90" y="310" width="120" height="40" as="geometry" />
        </mxCell>
        <mxCell id="aovXvjX4OymMQ-b7WY1g-24" value="" style="shape=flexArrow;endArrow=classic;html=1;rounded=0;entryX=0.5;entryY=0;entryDx=0;entryDy=0;exitX=0.5;exitY=1;exitDx=0;exitDy=0;" edge="1" parent="WIyWlLk6GJQsqaUBKTNV-1">
          <mxGeometry width="50" height="50" relative="1" as="geometry">
            <mxPoint x="389.5" y="820" as="sourcePoint" />
            <mxPoint x="389.5" y="870" as="targetPoint" />
            <Array as="points" />
          </mxGeometry>
        </mxCell>
        <mxCell id="aovXvjX4OymMQ-b7WY1g-25" value="Mark as present" style="rounded=0;whiteSpace=wrap;html=1;fontSize=12;glass=0;strokeWidth=1;shadow=0;" vertex="1" parent="WIyWlLk6GJQsqaUBKTNV-1">
          <mxGeometry x="500" y="880" width="120" height="50" as="geometry" />
        </mxCell>
        <mxCell id="aovXvjX4OymMQ-b7WY1g-26" value="" style="shape=flexArrow;endArrow=classic;html=1;rounded=0;entryX=0.5;entryY=0;entryDx=0;entryDy=0;exitX=0.5;exitY=1;exitDx=0;exitDy=0;" edge="1" parent="WIyWlLk6GJQsqaUBKTNV-1">
          <mxGeometry width="50" height="50" relative="1" as="geometry">
            <mxPoint x="559.5" y="820" as="sourcePoint" />
            <mxPoint x="559.5" y="870" as="targetPoint" />
            <Array as="points" />
          </mxGeometry>
        </mxCell>
        <mxCell id="aovXvjX4OymMQ-b7WY1g-27" value="Mark as absent" style="rounded=0;whiteSpace=wrap;html=1;fontSize=12;glass=0;strokeWidth=1;shadow=0;" vertex="1" parent="WIyWlLk6GJQsqaUBKTNV-1">
          <mxGeometry x="670" y="880" width="120" height="50" as="geometry" />
        </mxCell>
        <mxCell id="aovXvjX4OymMQ-b7WY1g-28" value="" style="shape=flexArrow;endArrow=classic;html=1;rounded=0;entryX=0.5;entryY=0;entryDx=0;entryDy=0;exitX=0.5;exitY=1;exitDx=0;exitDy=0;" edge="1" parent="WIyWlLk6GJQsqaUBKTNV-1">
          <mxGeometry width="50" height="50" relative="1" as="geometry">
            <mxPoint x="729.5" y="820" as="sourcePoint" />
            <mxPoint x="729.5" y="870" as="targetPoint" />
            <Array as="points" />
          </mxGeometry>
        </mxCell>
        <mxCell id="aovXvjX4OymMQ-b7WY1g-29" value="Push result to database" style="rounded=1;whiteSpace=wrap;html=1;fontSize=12;glass=0;strokeWidth=1;shadow=0;strokeColor=#FF3333;" vertex="1" parent="WIyWlLk6GJQsqaUBKTNV-1">
          <mxGeometry x="500" y="1000" width="120" height="50" as="geometry" />
        </mxCell>
        <mxCell id="aovXvjX4OymMQ-b7WY1g-30" value="" style="shape=flexArrow;endArrow=classic;html=1;rounded=0;entryX=0;entryY=0.5;entryDx=0;entryDy=0;exitX=0.5;exitY=1;exitDx=0;exitDy=0;" edge="1" parent="WIyWlLk6GJQsqaUBKTNV-1" source="aovXvjX4OymMQ-b7WY1g-22" target="aovXvjX4OymMQ-b7WY1g-29">
          <mxGeometry width="50" height="50" relative="1" as="geometry">
            <mxPoint x="400" y="930" as="sourcePoint" />
            <mxPoint x="270" y="1020" as="targetPoint" />
            <Array as="points">
              <mxPoint x="390" y="1025" />
            </Array>
          </mxGeometry>
        </mxCell>
        <mxCell id="aovXvjX4OymMQ-b7WY1g-31" value="" style="shape=flexArrow;endArrow=classic;html=1;rounded=0;entryX=0.5;entryY=0;entryDx=0;entryDy=0;exitX=0.5;exitY=1;exitDx=0;exitDy=0;" edge="1" parent="WIyWlLk6GJQsqaUBKTNV-1">
          <mxGeometry width="50" height="50" relative="1" as="geometry">
            <mxPoint x="559.5" y="940" as="sourcePoint" />
            <mxPoint x="559.5" y="990" as="targetPoint" />
            <Array as="points" />
          </mxGeometry>
        </mxCell>
        <mxCell id="aovXvjX4OymMQ-b7WY1g-32" value="" style="shape=flexArrow;endArrow=classic;html=1;rounded=0;entryX=1;entryY=0.5;entryDx=0;entryDy=0;" edge="1" parent="WIyWlLk6GJQsqaUBKTNV-1" target="aovXvjX4OymMQ-b7WY1g-29">
          <mxGeometry width="50" height="50" relative="1" as="geometry">
            <mxPoint x="720" y="930" as="sourcePoint" />
            <mxPoint x="850" y="1020" as="targetPoint" />
            <Array as="points">
              <mxPoint x="720" y="1025" />
            </Array>
          </mxGeometry>
        </mxCell>
      </root>
    </mxGraphModel>
  </diagram>
</mxfile>
